<svg width="169" height="153" viewBox="0 0 169 153" fill="none" xmlns="http://www.w3.org/2000/svg">
<path d="M107.827 40.9008C88.287 25.9126 71.8053 36.5598 64.12 43.9132C61.0025 46.9066 56.9993 48.5906 52.7027 48.7999C42.1873 49.3207 23.5542 53.98 21.1809 78.3641C17.6391 114.539 69.2673 143.122 80.6874 138.037C85.0078 136.114 87.6699 134.273 89.4252 132.64C92.6298 129.706 96.633 128.022 100.969 127.697C103.344 127.524 106.492 126.843 110.824 125.013C122.354 120.174 136.733 63.0549 107.852 40.8896L107.827 40.9008Z" fill="#EE6681"/>
<path d="M71.753 31.821C68.6498 39.1983 60.356 42.4651 57.8583 43.315C57.4419 43.4676 56.9935 43.2085 56.7988 42.7711C55.7564 40.0899 52.6692 30.9801 55.7725 23.6028C58.8757 16.2255 67.1695 12.9588 69.6672 12.1089C70.0836 11.9562 70.5319 12.2153 70.7267 12.6528C71.7691 15.334 74.8562 24.4437 71.753 31.821Z" fill="#4AB93B"/>
<path d="M28.3491 72.1552C28.3491 72.1552 21.9941 94.8719 42.8391 112.588C50.9264 120.553 58.6429 124.489 60.7199 122.286C62.797 120.084 45.6794 108.768 40.0234 96.6082C31.7463 78.8335 34.3902 71.9883 34.0591 69.6129C33.7281 67.2375 30.5752 67.3635 28.3491 72.1552Z" fill="white"/>
<path d="M66.535 128.751C67.7071 128.23 68.1994 126.778 67.6347 125.51C67.0699 124.241 65.6619 123.636 64.4898 124.158C63.3176 124.68 62.8253 126.131 63.39 127.4C63.9548 128.668 65.3628 129.273 66.535 128.751Z" fill="white"/>
<g filter="url(#filter0_d_204_719)">
<path d="M99.1121 113.4C102.088 114.424 103.88 116.44 103.88 119.704C103.88 122.104 102.792 124.408 100.776 125.752C99.3041 126.68 97.4481 127 95.7521 127H87.6241C84.5201 127 83.3041 125.784 83.3041 122.68V105.656C83.3041 102.552 84.5201 101.336 87.6241 101.336H95.3041C99.3681 101.336 102.824 103.544 102.824 107.96C102.824 110.616 101.48 112.344 99.1121 113.4ZM87.2081 112.152H94.7601C97.1281 112.152 98.8241 110.904 98.8241 108.408C98.8241 105.88 97.0961 104.76 94.7601 104.76H88.7441C87.7521 104.76 87.2081 105.272 87.2081 106.264V112.152ZM87.2081 115.48V122.072C87.2081 123.064 87.7521 123.576 88.7441 123.576H95.1121C97.6401 123.576 99.8801 122.264 99.8801 119.48C99.8801 116.568 97.6081 115.48 95.0161 115.48H87.2081ZM119.685 124.888C119.109 125.592 118.533 126.136 117.733 126.584C116.357 127.352 114.853 127.704 113.285 127.704C109.765 127.704 107.013 125.72 107.013 121.976C107.013 117.56 110.277 116.344 116.997 115.704C118.597 115.544 119.653 115.256 119.653 113.368C119.653 111.064 117.701 110.424 115.717 110.424C114.885 110.424 113.989 110.552 113.221 110.936C112.037 111.544 111.749 112.216 111.301 113.4C111.045 114.04 110.277 114.328 109.637 114.328C108.677 114.328 107.749 113.816 107.749 112.792C107.749 111.576 108.453 110.36 109.317 109.528C111.013 107.864 113.477 107.416 115.749 107.416C120.005 107.416 123.365 108.856 123.365 113.624V123.64C123.365 124.408 123.493 125.016 123.749 125.88C123.781 126.008 123.813 126.168 123.813 126.328C123.813 127.32 122.725 127.672 121.861 127.672C120.101 127.672 119.909 126.328 119.685 124.888ZM119.621 117.624C118.821 118.008 118.149 118.2 116.965 118.392C115.429 118.616 113.957 118.84 112.549 119.384C111.493 119.8 110.853 120.888 110.853 122.008C110.853 123.928 112.389 124.888 114.149 124.888C116.581 124.888 119.621 123.224 119.621 120.472V117.624ZM127.169 117.56C127.169 111.992 130.145 107.416 136.129 107.416C138.593 107.416 141.089 108.344 142.657 110.296C143.393 111.224 144.129 112.504 144.129 113.72C144.129 114.744 143.169 115.256 142.241 115.256C141.025 115.256 140.737 114.712 140.417 113.688C139.841 111.832 138.113 110.648 136.193 110.648C132.289 110.648 131.009 114.232 131.009 117.56C131.009 120.856 132.353 124.44 136.225 124.44C138.369 124.44 139.777 123.256 140.481 121.304C140.865 120.216 141.121 119.448 142.465 119.448C143.425 119.448 144.289 119.992 144.289 121.016C144.289 122.296 143.521 123.608 142.817 124.6C141.281 126.744 138.689 127.672 136.129 127.672C130.081 127.672 127.169 123.192 127.169 117.56ZM152.14 116.28L160.94 107.992C161.26 107.672 161.676 107.416 162.156 107.416C163.18 107.416 164.172 108.44 164.172 109.464C164.172 109.912 163.98 110.296 163.628 110.616L158.284 115.64L164.46 124.792C164.652 125.08 164.812 125.432 164.812 125.784C164.812 126.84 163.724 127.672 162.732 127.672C162.092 127.672 161.644 127.256 161.292 126.744L155.5 118.264L152.14 121.432V125.912C152.14 127.128 151.404 127.672 150.252 127.672C149.1 127.672 148.396 127.064 148.396 125.912V102.424C148.396 101.208 149.132 100.632 150.316 100.632C151.468 100.632 152.14 101.272 152.14 102.424V116.28Z" fill="white"/>
</g>
<defs>
<filter id="filter0_d_204_719" x="79.3042" y="100.632" width="89.5073" height="35.072" filterUnits="userSpaceOnUse" color-interpolation-filters="sRGB">
<feFlood flood-opacity="0" result="BackgroundImageFix"/>
<feColorMatrix in="SourceAlpha" type="matrix" values="0 0 0 0 0 0 0 0 0 0 0 0 0 0 0 0 0 0 127 0" result="hardAlpha"/>
<feOffset dy="4"/>
<feGaussianBlur stdDeviation="2"/>
<feComposite in2="hardAlpha" operator="out"/>
<feColorMatrix type="matrix" values="0 0 0 0 0 0 0 0 0 0 0 0 0 0 0 0 0 0 0.25 0"/>
<feBlend mode="normal" in2="BackgroundImageFix" result="effect1_dropShadow_204_719"/>
<feBlend mode="normal" in="SourceGraphic" in2="effect1_dropShadow_204_719" result="shape"/>
</filter>
</defs>
</svg>
