<svg width="175" height="152" viewBox="0 0 175 152" fill="none" xmlns="http://www.w3.org/2000/svg">
<path d="M152.71 78.7261C150.774 54.1763 131.833 49.0524 121.226 48.2614C116.916 47.9476 112.985 46.0995 109.955 43.0465C102.532 35.5806 86.6012 24.8512 66.8923 39.4036C37.6392 60.9772 50.9439 118.47 62.364 123.555C66.6844 125.478 69.8335 126.225 72.2218 126.437C76.5464 126.855 80.4765 128.703 83.6193 131.708C85.3372 133.357 87.9496 135.241 92.2083 137.235C103.519 142.566 155.588 115.031 152.735 78.7374L152.71 78.7261Z" fill="#EE6681"/>
<path d="M135.32 45.8426C127.761 48.4729 119.783 44.4952 117.481 43.2078C117.089 43.0005 116.981 42.4939 117.176 42.0565C118.471 39.4878 123.175 31.098 130.734 28.4677C138.293 25.8375 146.27 29.8151 148.573 31.1025C148.965 31.3099 149.073 31.8164 148.878 32.2539C147.583 34.8226 142.879 43.2124 135.32 45.8426Z" fill="#4AB93B"/>
<path d="M76.3027 40.576C76.3027 40.576 55.1685 51.0537 55.951 78.399C55.4434 89.7384 57.6817 98.1067 60.7083 98.1765C63.7349 98.2462 60.6904 77.9536 65.9422 65.6139C73.6129 47.5692 80.469 44.9537 82.0127 43.1182C83.5565 41.2828 81.3531 39.024 76.3027 40.576Z" fill="white"/>
<path d="M59.7946 106.824C60.9668 107.346 62.3748 106.741 62.9396 105.472C63.5043 104.204 63.012 102.752 61.8398 102.231C60.6677 101.709 59.2597 102.314 58.6949 103.582C58.1301 104.851 58.6225 106.302 59.7946 106.824Z" fill="white"/>
<g filter="url(#filter0_d_204_718)">
<path d="M11.216 99.552L20.88 118.88C20.976 119.072 21.136 119.328 21.392 119.328C21.68 119.328 21.776 118.976 21.776 118.752V99.52C21.776 98.304 22.544 97.632 23.728 97.632C24.944 97.632 25.712 98.304 25.712 99.52V122.016C25.712 123.776 24.464 124.672 22.768 124.672C21.36 124.672 20.08 124.064 19.44 122.784L9.712 103.456C9.616 103.264 9.456 103.04 9.264 103.04C8.976 103.04 8.88 103.36 8.88 103.584V122.816C8.88 124.032 8.144 124.672 6.928 124.672C5.712 124.672 4.976 124.032 4.976 122.816V100.352C4.976 98.56 6.192 97.632 7.888 97.632C9.296 97.632 10.576 98.304 11.216 99.552ZM33.7763 115.488C33.9043 118.72 35.6003 121.504 39.1203 121.504C41.1043 121.504 42.6083 120.672 43.4723 118.848C43.9203 117.92 44.3043 117.312 45.4243 117.312C46.3843 117.312 47.3123 117.888 47.3123 118.912C47.3123 119.872 46.6083 120.864 46.0323 121.568C44.2723 123.776 41.8403 124.672 39.0563 124.672C32.9763 124.672 29.8723 120.288 29.8723 114.528C29.8723 108.928 32.7843 104.416 38.8003 104.416C41.8083 104.416 44.4323 105.6 46.0643 108.192C46.9603 109.6 47.5683 111.36 47.5683 113.024C47.5683 114.816 46.2563 115.488 44.6243 115.488H33.7763ZM33.9043 112.64H42.5763C43.0883 112.64 43.5683 112.448 43.5683 111.872C43.5683 111.04 43.1203 110.112 42.6083 109.472C41.6803 108.256 40.3683 107.584 38.8323 107.584C35.6643 107.584 34.3843 109.824 33.9043 112.64ZM58.6045 111.424L63.6925 105.28C64.0765 104.8 64.5885 104.416 65.2285 104.416C66.1885 104.416 67.1805 105.28 67.1805 106.304C67.1805 106.784 66.8925 107.2 66.6045 107.552L61.0045 114.336L66.9565 121.536C67.2765 121.92 67.5325 122.336 67.5325 122.816C67.5325 123.808 66.5085 124.672 65.5485 124.672C64.9405 124.672 64.4285 124.288 64.0445 123.808L58.6045 117.248L53.1645 123.808C52.7485 124.288 52.2365 124.672 51.5965 124.672C50.6365 124.672 49.6765 123.776 49.6765 122.816C49.6765 122.336 49.9325 121.888 50.2205 121.536L56.1725 114.336L50.5725 107.552C50.2845 107.2 49.9965 106.784 49.9965 106.304C49.9965 105.28 50.9885 104.416 51.9805 104.416C52.6205 104.416 53.1005 104.8 53.4845 105.28L58.6045 111.424ZM72.951 105.088V101.12C72.951 99.904 73.687 99.328 74.871 99.328C76.023 99.328 76.695 99.936 76.695 101.12V105.088H79.511C80.407 105.088 81.079 105.664 81.079 106.592C81.079 107.552 80.407 108.096 79.511 108.096H76.695V119.744C76.695 121.152 77.559 121.568 78.839 121.568H79.063C80.119 121.568 81.111 121.696 81.111 122.976C81.111 124.448 79.351 124.672 78.231 124.672C75.127 124.672 72.951 123.808 72.951 120.352V108.096H70.871C69.975 108.096 69.303 107.552 69.303 106.592C69.303 105.664 69.975 105.088 70.871 105.088H72.951Z" fill="white"/>
</g>
<defs>
<filter id="filter0_d_204_718" x="0.976074" y="97.6321" width="84.135" height="35.04" filterUnits="userSpaceOnUse" color-interpolation-filters="sRGB">
<feFlood flood-opacity="0" result="BackgroundImageFix"/>
<feColorMatrix in="SourceAlpha" type="matrix" values="0 0 0 0 0 0 0 0 0 0 0 0 0 0 0 0 0 0 127 0" result="hardAlpha"/>
<feOffset dy="4"/>
<feGaussianBlur stdDeviation="2"/>
<feComposite in2="hardAlpha" operator="out"/>
<feColorMatrix type="matrix" values="0 0 0 0 0 0 0 0 0 0 0 0 0 0 0 0 0 0 0.25 0"/>
<feBlend mode="normal" in2="BackgroundImageFix" result="effect1_dropShadow_204_718"/>
<feBlend mode="normal" in="SourceGraphic" in2="effect1_dropShadow_204_718" result="shape"/>
</filter>
</defs>
</svg>
