<svg width="1280" height="832" viewBox="0 0 1280 832" fill="none" xmlns="http://www.w3.org/2000/svg">
<g opacity="0.7">
<path d="M1188 520.06C1188 520.06 1257.91 498.09 1257.91 294H1363.98C1363.98 294 1362.09 507.778 1432 522L1188 520.073V520.06Z" fill="#D8CEA5"/>
<path d="M1484.07 230.283L1419.81 230.017C1419.81 230.017 1419.81 230.017 1419.81 230H1418.51H1415.09C1415.09 230.017 1415.09 230.033 1415.09 230.05L1365.92 230.582C1365.86 230.449 1365.8 230.316 1365.74 230.2L1308.46 230H1308.39H1308.13L1254.58 230.582C1254.52 230.449 1254.45 230.316 1254.39 230.2L1196.8 230C1196.8 230 1196.73 230.166 1196.68 230.25L1135.98 230C1134.72 236.904 1134.64 244.29 1135.94 251.677C1139.46 271.573 1152.07 285.464 1166.59 287.56C1166.57 290.921 1166.79 294.331 1167.33 297.758C1171.37 323.111 1190.18 339.331 1209.34 333.975C1221.63 330.548 1231.05 319.052 1235.17 304.579C1240.17 310.418 1246.72 313.995 1253.91 313.995C1260.46 313.995 1266.49 311.034 1271.29 306.093C1276.59 322.596 1288.95 334.191 1303.37 334.191C1304.3 334.191 1305.23 334.108 1306.15 334.008C1310.8 335.289 1315.71 335.372 1320.67 334.008C1332.96 330.581 1342.38 319.085 1346.5 304.612C1351.51 310.451 1358.06 314.028 1365.25 314.028C1371.8 314.028 1377.82 311.067 1382.62 306.126C1387.92 322.629 1400.28 334.224 1414.7 334.224C1433.94 334.224 1449.54 313.579 1449.54 288.126C1449.54 288.043 1449.54 287.96 1449.54 287.876C1452.22 287.876 1454.92 287.51 1457.63 286.679C1476.69 280.773 1488.52 255.536 1484.06 230.316L1484.07 230.283Z" fill="#A8CFA3"/>
<path d="M1537.07 160.717L1472.81 160.983C1472.81 160.983 1472.81 160.983 1472.81 161H1471.51H1468.09C1468.09 160.983 1468.09 160.967 1468.09 160.95L1418.92 160.418C1418.86 160.551 1418.8 160.684 1418.74 160.8L1361.46 161H1361.39H1361.13L1307.58 160.418C1307.52 160.551 1307.45 160.684 1307.39 160.8L1249.8 161C1249.8 161 1249.73 160.834 1249.68 160.75L1188.98 161C1187.72 154.096 1187.64 146.71 1188.94 139.323C1192.46 119.427 1205.07 105.536 1219.59 103.44C1219.57 100.079 1219.79 96.6689 1220.33 93.2419C1224.37 67.8887 1243.18 51.6687 1262.34 57.0254C1274.63 60.4524 1284.05 71.9479 1288.17 86.4211C1293.17 80.5819 1299.72 77.0052 1306.91 77.0052C1313.46 77.0052 1319.49 79.9664 1324.29 84.9072C1329.59 68.4044 1341.95 56.8092 1356.37 56.8092C1357.3 56.8092 1358.23 56.8923 1359.15 56.9922C1363.8 55.7112 1368.71 55.628 1373.67 56.9922C1385.96 60.4192 1395.38 71.9146 1399.5 86.3879C1404.51 80.5486 1411.06 76.9719 1418.25 76.9719C1424.8 76.9719 1430.82 79.9331 1435.62 84.874C1440.92 68.3711 1453.28 56.7759 1467.7 56.7759C1486.94 56.7759 1502.54 77.4211 1502.54 102.874C1502.54 102.957 1502.54 103.04 1502.54 103.124C1505.22 103.124 1507.92 103.49 1510.63 104.321C1529.69 110.227 1541.52 135.464 1537.06 160.684L1537.07 160.717Z" fill="#A8CFA3"/>
</g>
<g opacity="0.6" clip-path="url(#clip0_356_200)">
<path d="M1122.2 690.039C1122.2 690.039 1128.12 665.158 1135.94 652.644C1143.77 640.13 1153.99 631.833 1167.56 623.442C1181.14 615.052 1205.93 615.627 1222.93 620.464C1239.93 625.3 1248.44 632.624 1254.61 638.343C1254.61 638.343 1245.28 646.507 1238.73 654.175C1232.18 661.844 1206.63 676.564 1186.36 688.518C1166.09 700.473 1146.73 709.472 1124.1 693.536C1124.1 693.536 1122.6 693.206 1122.2 690.042L1122.2 690.039Z" fill="url(#paint0_linear_356_200)"/>
<path d="M1105.57 708.842C1105.57 708.842 1108.81 703.093 1121.62 690.15C1134.44 677.204 1138.18 674.87 1138.18 674.87C1138.18 674.87 1139.8 651.878 1146.83 640.285C1146.83 640.285 1139.67 662.344 1139.85 673.201L1150.32 663.483C1150.32 663.483 1153.95 642.837 1163.85 628.459C1163.85 628.459 1153.54 648.828 1151.86 662.364L1163.29 653.624C1163.29 653.624 1176.9 635.629 1189.34 625.537C1189.34 625.537 1174.62 638.672 1166.66 652.336L1173.09 648.486C1173.09 648.486 1189.78 634.627 1204.6 626.867C1204.6 626.867 1178.95 642.76 1177.38 648.253L1195.9 645.919C1195.9 645.919 1208.42 633.099 1216.99 630.459C1216.99 630.459 1201.55 640.659 1197.57 645.69C1197.57 645.69 1223.72 636.35 1231.89 635.892L1197.65 647.15C1197.65 647.15 1206.27 651.782 1220.47 651.231C1220.47 651.231 1205.07 653.67 1195.65 648.578L1176.81 650.876C1176.81 650.876 1187.51 656.431 1200.68 656.851C1200.68 656.851 1191.25 658.711 1174.81 651.894L1167.57 654.848C1167.57 654.848 1174.64 665.082 1188.21 673.028C1188.21 673.028 1176.8 670.725 1165.27 656.356L1152.98 664.399C1152.98 664.399 1160.4 675.746 1178.12 684.123C1178.12 684.123 1165.57 683.604 1151.13 666.097L1140.1 676.12C1140.1 676.12 1147.81 688.978 1160.16 693.898C1160.16 693.898 1148.51 692.064 1138.62 677.341C1138.62 677.341 1109.44 704.914 1109.3 707.303C1109.3 707.303 1109.81 708.986 1105.57 708.844L1105.57 708.842Z" fill="url(#paint1_linear_356_200)"/>
</g>
<g opacity="0.6" clip-path="url(#clip1_356_200)">
<path d="M791.008 631.312C791.008 631.312 794.99 614.583 800.251 606.17C805.512 597.756 812.385 592.177 821.511 586.536C830.637 580.895 847.304 581.281 858.735 584.533C870.166 587.785 875.889 592.709 880.036 596.554C880.036 596.554 873.767 602.044 869.362 607.199C864.958 612.355 847.779 622.252 834.149 630.289C820.518 638.327 807.503 644.378 792.289 633.663C792.289 633.663 791.283 633.441 791.01 631.314L791.008 631.312Z" fill="url(#paint2_linear_356_200)"/>
<path d="M779.828 643.954C779.828 643.954 782.009 640.089 790.623 631.386C799.24 622.682 801.754 621.113 801.754 621.113C801.754 621.113 802.844 605.654 807.572 597.86C807.572 597.86 802.76 612.691 802.876 619.991L809.916 613.457C809.916 613.457 812.356 599.576 819.015 589.909C819.015 589.909 812.086 603.604 810.956 612.704L818.64 606.828C818.64 606.828 827.786 594.729 836.152 587.945C836.152 587.945 826.256 596.776 820.9 605.962L825.226 603.374C825.226 603.374 836.45 594.056 846.415 588.838C846.415 588.838 829.166 599.524 828.111 603.217L840.566 601.648C840.566 601.648 848.979 593.028 854.741 591.254C854.741 591.254 844.36 598.112 841.685 601.494C841.685 601.494 859.27 595.215 864.763 594.907L841.738 602.476C841.738 602.476 847.534 605.59 857.079 605.22C857.079 605.22 846.729 606.859 840.393 603.435L827.73 604.981C827.73 604.981 834.925 608.716 843.774 608.998C843.774 608.998 837.433 610.249 826.386 605.666L821.516 607.651C821.516 607.651 826.269 614.532 835.392 619.875C835.392 619.875 827.723 618.326 819.968 608.665L811.703 614.073C811.703 614.073 816.697 621.702 828.61 627.334C828.61 627.334 820.173 626.985 810.459 615.215L803.048 621.953C803.048 621.953 808.231 630.598 816.534 633.906C816.534 633.906 808.698 632.673 802.049 622.774C802.049 622.774 782.434 641.313 782.341 642.919C782.341 642.919 782.68 644.051 779.833 643.955L779.828 643.954Z" fill="url(#paint3_linear_356_200)"/>
</g>
<g opacity="0.6" clip-path="url(#clip2_356_200)">
<path d="M290.513 653.473C290.513 653.473 274.562 659.896 267.023 666.348C259.484 672.8 254.987 680.425 250.764 690.288C246.541 700.15 249.398 716.575 254.311 727.396C259.225 738.218 264.944 743.145 269.362 746.676C269.362 746.676 273.86 739.661 278.304 734.54C282.748 729.419 289.984 710.961 295.909 696.288C301.833 681.615 305.884 667.845 293.029 654.391C293.029 654.391 292.66 653.429 290.516 653.475L290.513 653.473Z" fill="url(#paint4_linear_356_200)"/>
<path d="M301.814 640.54C301.814 640.54 298.315 643.27 290.989 653.082C283.661 662.895 282.482 665.615 282.482 665.615C282.482 665.615 267.357 668.989 260.351 674.822C260.351 674.822 274.303 667.86 281.539 666.891L276.123 674.823C276.123 674.823 262.758 679.298 254.187 687.319C254.187 687.319 266.702 678.432 275.534 675.963L270.864 684.435C270.864 684.435 260.257 695.276 254.79 704.557C254.79 704.557 262.054 693.46 270.343 686.799L268.425 691.461C268.425 691.461 260.878 703.944 257.198 714.574C257.198 714.574 265.203 695.929 268.699 694.337L268.997 706.887C268.997 706.887 261.722 716.486 260.823 722.448C260.823 722.448 266.063 711.164 269.011 708.017C269.011 708.017 265.413 726.339 265.924 731.817L269.99 707.923C269.99 707.923 273.93 713.192 274.981 722.687C274.981 722.687 275.066 712.208 270.739 706.45L270.386 693.698C270.386 693.698 275.149 700.259 276.742 708.968C276.742 708.968 277.037 702.512 270.864 692.268L272.105 687.157C272.105 687.157 279.615 690.835 286.253 699.064C286.253 699.064 283.583 691.71 272.878 685.476L276.998 676.499C276.998 676.499 285.284 680.305 292.623 691.249C292.623 691.249 291.025 682.957 277.942 675.099L283.505 666.77C283.505 666.77 292.824 670.612 297.329 678.331C297.329 678.331 294.945 670.765 284.169 665.66C284.169 665.66 299.589 643.509 301.164 643.179C301.164 643.179 302.333 643.346 301.816 640.544L301.814 640.54Z" fill="url(#paint5_linear_356_200)"/>
</g>
<g opacity="0.5">
<path d="M-129.318 425.931C-126.55 417.248 -116.892 411.831 -108.092 414.024L1279.57 759.88C1285.39 761.332 1289.55 765.864 1290.31 771.599L1296.86 820.826C1298.32 831.866 1287.09 841.751 1275.7 839.44L-152.061 549.634C-160.721 547.876 -165.565 539.626 -162.881 531.207L-129.318 425.931Z" fill="url(#paint6_linear_356_200)"/>
<path d="M-145.178 451.211C-142.36 442.372 -132.426 436.951 -123.554 439.409L1089.99 775.69C1092.89 776.492 1095.29 778.277 1096.76 780.726C1102.33 789.962 1092.58 802.043 1081.39 799.771L-159.32 547.934C-167.98 546.177 -172.824 537.927 -170.14 529.508L-145.178 451.211Z" fill="url(#paint7_linear_356_200)"/>
<path d="M784.071 663.249L881.321 688.913" stroke="#7B7053" stroke-width="8" stroke-linecap="round" stroke-linejoin="round"/>
<path d="M929.087 749.01L1021.35 765.724" stroke="#7B7053" stroke-width="8" stroke-linecap="round" stroke-linejoin="round"/>
<path d="M1185.14 758.12L1287.72 785.219" stroke="#7B7053" stroke-width="8" stroke-linecap="round" stroke-linejoin="round"/>
<path d="M-70.9226 471.576L35.385 486.987" stroke="#695F44" stroke-width="8" stroke-linecap="round" stroke-linejoin="round"/>
<path d="M18.8866 558.128L124.001 577.478" stroke="#695F44" stroke-width="8" stroke-linecap="round" stroke-linejoin="round"/>
<path d="M224.337 551.345L326.226 580.428" stroke="#695F44" stroke-width="8" stroke-linecap="round" stroke-linejoin="round"/>
</g>
<path d="M856.776 122.567C856.776 122.567 932.271 94.6628 984.204 91.0768C1036.14 87.4907 1091.57 89.0283 1147.74 100.341C1203.91 111.654 1262.34 131.915 1307.74 170.542C1353.15 209.168 1367.93 238.474 1377.99 260.555C1377.99 260.555 1335.55 261.366 1302.62 265.858C1269.69 270.35 1131.6 282.542 1045.12 258.384C958.652 234.227 881.76 207.216 854.042 132.383C854.042 132.383 850.508 128.617 856.776 122.567Z" fill="url(#paint8_linear_356_200)"/>
<path d="M765.758 116.309C765.758 116.309 787.554 115.057 854.867 121.524C922.179 127.992 938.447 132.235 938.447 132.235C938.447 132.235 997.119 98.1436 1044.61 94.3514C1044.61 94.3514 972.178 114.976 947.181 133.103L1000.17 139.785C1000.17 139.785 1069.28 108.704 1126.89 102.136C1126.89 102.136 1043.85 122.786 1007.23 141.282L1059.34 149.982C1059.34 149.982 1139.03 123.427 1194.35 123.976C1194.35 123.976 1112.88 135.656 1068.21 151.703L1116.7 161.085C1116.7 161.085 1177.91 148.291 1240 152.531C1240 152.531 1141.79 157.159 1126.18 163.971L1181.89 176.536C1181.89 176.536 1241.84 171.656 1272.95 180.8C1272.95 180.8 1208.08 175.388 1187.47 178.887C1187.47 178.887 1284.5 204.19 1310.83 217.09L1185.37 181.987C1185.37 181.987 1204.85 205.999 1250.2 228.923C1250.2 228.923 1198.05 207.813 1176.78 181.49L1119.27 167.564C1119.27 167.564 1139.05 198.344 1176.28 224.662C1176.28 224.662 1145.24 209.676 1111.43 165.504L1065.07 156.28C1065.07 156.28 1072.17 188.491 1107.62 229.493C1107.62 229.493 1073.27 204.048 1058.13 155.464L1005.65 146.977C1005.65 146.977 1000.38 181.529 1031.73 233.426C1031.73 233.426 996.81 205.533 996.321 145.77L941.041 138.389C941.041 138.389 933.046 176.025 957.047 210.691C957.047 210.691 927.797 182.568 933.898 137.193C933.898 137.193 785.985 122.219 778.399 124.199C778.399 124.199 774.342 127.119 765.775 116.306L765.758 116.309Z" fill="url(#paint9_linear_356_200)"/>
<path d="M769.513 145.039C769.513 145.039 801.922 107.532 827.958 90.9957C853.995 74.4599 883.073 59.9947 914.878 51.1265C946.683 42.2582 981.803 38.0749 1014.58 48.4067C1047.36 58.7386 1062.04 72.0327 1072.54 82.3497C1072.54 82.3497 1050.76 94.6034 1034.78 106.405C1018.81 118.207 950.209 163.754 899.63 173.405C849.051 183.055 802.751 188.353 770.45 151.624C770.45 151.624 767.717 150.369 769.513 145.039Z" fill="url(#paint10_linear_356_200)"/>
<path d="M720.872 166.575C720.872 166.575 731.86 159.785 768.274 144.95C804.687 130.115 814.13 128.121 814.13 128.121C814.13 128.121 836.342 91.6077 860.029 76.1818C860.029 76.1818 827.461 108.518 818.861 126.213L847.906 115.48C847.906 115.48 876.245 77.8581 904.509 57.9762C904.509 57.9762 866.455 93.2703 851.921 114.41L880.996 105.117C880.996 105.117 915.903 67.2459 944.685 52.2248C944.685 52.2248 905.289 81.7605 886.002 103.678L913.368 95.7933C913.368 95.7933 942.004 71.2173 975.176 56.5098C975.176 56.5098 925.422 86.5023 918.971 94.8761L950.837 86.8793C950.837 86.8793 980.713 67.3529 999.019 64.1495C999.019 64.1495 964.126 78.9322 954.291 86.7268C954.291 86.7268 1010.61 74.8268 1027.34 75.1803L953.944 89.1506C953.944 89.1506 969.794 97.9981 998.777 99.0248C998.777 99.0248 966.706 100.961 949.378 91.2378L916.251 98.9274C916.251 98.9274 933.878 111.709 959.471 117.003C959.471 117.003 939.803 116.717 911.697 99.8794L885.477 107.264C885.477 107.264 896.878 124.415 925.071 138.916C925.071 138.916 901.175 133.345 881.685 108.706L852.468 118.228C852.468 118.228 858.028 140.198 886.71 162.305C886.71 162.305 861.933 155.438 847.349 120.099L816.949 131.054C816.949 131.054 821.833 155.611 842.576 169.53C842.576 169.53 820.684 160.952 812.963 132.326C812.963 132.326 732.765 164.472 729.311 167.752C729.311 167.752 727.91 170.61 720.88 166.569L720.872 166.575Z" fill="url(#paint11_linear_356_200)"/>
<path d="M376.012 159.189C376.012 159.189 433.89 110.122 478.965 89.2358C524.04 68.35 573.96 50.4798 627.834 40.412C681.709 30.3441 740.612 26.8728 794.095 43.038C847.578 59.2032 870.63 78.2568 887.036 92.9869C887.036 92.9869 849.49 108.306 821.656 123.378C793.821 138.45 674.859 196.177 589.65 206.118C504.441 216.059 426.808 220.341 376.883 168.224C376.883 168.224 372.464 166.34 376.012 159.189Z" fill="url(#paint12_linear_356_200)"/>
<path d="M292.785 185.454C292.785 185.454 311.788 176.897 373.958 158.988C436.129 141.08 452.057 138.961 452.057 138.961C452.057 138.961 492.857 90.6022 533.904 71.0801C533.904 71.0801 476.302 113.088 460.134 136.661L509.608 123.877C509.608 123.877 560.724 74.3951 609.857 49.0898C609.857 49.0898 542.813 94.7812 516.404 122.673L565.779 111.853C565.779 111.853 627.855 62.449 677.341 43.8022C677.341 43.8022 608.666 81.5593 574.264 110.209L620.646 101.2C620.646 101.2 670.888 69.5202 727.65 51.5799C727.65 51.5799 641.685 89.3016 630.069 100.306L683.953 91.4298C683.953 91.4298 735.732 66.7115 766.542 63.5079C766.542 63.5079 706.907 81.4414 689.719 91.4413C689.719 91.4413 784.726 78.7983 812.537 80.3429L688.888 94.7231C688.888 94.7231 714.347 107.79 762.487 111.03C762.487 111.03 708.897 111.633 681.068 97.2781L625.116 105.655C625.116 105.655 653.123 124.198 695.173 133.039C695.173 133.039 662.461 131.401 617.435 106.664L573.015 115.064C573.015 115.064 590.197 139.166 635.613 160.724C635.613 160.724 596.416 151.612 566.55 116.789L516.916 127.912C516.916 127.912 523.871 158.212 569.304 190.167C569.304 190.167 528.777 179.233 508.199 130.137L456.444 143.138C456.444 143.138 462.003 176.923 495.078 197.213C495.078 197.213 459.531 184.129 449.675 144.619C449.675 144.619 312.804 183.342 306.71 187.594C306.71 187.594 304.078 191.401 292.798 185.446L292.785 185.454Z" fill="url(#paint13_linear_356_200)"/>
<path d="M500.508 150.371C500.508 150.371 581.098 122.283 637.367 118.667C693.637 115.052 753.983 116.591 815.655 127.967C877.328 139.342 941.932 159.721 993.354 198.581C1044.77 237.441 1062.41 266.927 1074.52 289.145C1074.52 289.145 1028.43 289.967 992.866 294.491C957.304 299.015 807.821 311.303 712.52 287.007C617.22 262.711 532.183 235.543 498.059 160.249C498.059 160.249 494.016 156.46 500.508 150.371Z" fill="url(#paint14_linear_356_200)"/>
<path d="M401.221 144.087C401.221 144.087 424.85 142.824 498.376 149.322C571.903 155.821 589.815 160.088 589.815 160.088C589.815 160.088 651.786 125.776 703.215 121.954C703.215 121.954 625.568 142.717 599.357 160.961L657.319 167.677C657.319 167.677 730.796 136.392 793.083 129.775C793.083 129.775 703.907 150.566 665.073 169.182L722.192 177.928C722.192 177.928 807.419 151.198 867.59 151.742C867.59 151.742 779.635 163.506 731.927 179.659L785.15 189.093C785.15 189.093 851.018 176.21 918.743 180.468C918.743 180.468 812.219 185.139 795.612 191.995L856.848 204.63C856.848 204.63 921.759 199.712 956.071 208.909C956.071 208.909 885.261 203.472 863.04 206.996C863.04 206.996 969.883 232.442 999.193 245.419L860.918 210.115C860.918 210.115 883.382 234.274 933.905 257.334C933.905 257.334 876.084 236.099 851.556 209.616L788.284 195.611C788.284 195.611 811.435 226.581 853.313 253.057C853.313 253.057 818.771 237.982 779.652 193.54L728.765 184.265C728.765 184.265 738.199 216.676 778.929 257.927C778.929 257.927 740.218 232.329 721.171 183.444L663.66 174.912C663.66 174.912 659.78 209.68 696.632 261.895C696.632 261.895 657.175 233.834 653.458 173.699L592.964 166.28C592.964 166.28 586.278 204.151 614.22 239.029C614.22 239.029 580.921 210.736 585.134 165.078C585.134 165.078 423.526 150.031 415.384 152.025C415.384 152.025 411.129 154.963 401.238 144.084L401.221 144.087Z" fill="url(#paint15_linear_356_200)"/>
<path d="M-5.94782 190.319C-5.94782 190.319 85.1096 126.322 152.928 102.826C220.746 79.3306 294.913 61.3081 373.309 55.8734C451.705 50.4386 536.07 55.9548 609.221 90.3342C682.372 124.713 711.74 157.908 732.432 183.31C732.432 183.31 676.314 199.722 634.047 217.537C591.779 235.352 412.327 301.322 289.404 300.823C166.481 300.323 55.3426 292.606 -6.32399 204.216C-6.32399 204.216 -12.2699 200.542 -5.94782 190.319Z" fill="url(#paint16_linear_356_200)"/>
<path d="M-128.97 215.002C-128.97 215.002 -100.423 205.473 -8.8316 189.638C82.7599 173.802 105.785 173.5 105.785 173.5C105.785 173.5 172.435 107.449 234.282 85.2891C234.282 85.2891 144.88 138.604 117.679 171.483L190.304 161.111C190.304 161.111 271.821 95.2444 346.198 65.7729C346.198 65.7729 242.712 122.958 200.181 160.526L272.313 153.123C272.313 153.123 369.399 89.3829 443.089 70.1002C443.089 70.1002 338.702 114.923 284.671 152.179L352.225 146.981C352.225 146.981 429.319 108.02 513.226 91.1451C513.226 91.1451 384.263 132.745 365.782 147.348L443.978 143.727C443.978 143.727 522.013 115.633 566.388 116.408C566.388 116.408 478.398 132.747 452.173 144.801C452.173 144.801 589.509 142.989 628.773 150.434L450.405 149.639C450.405 149.639 484.266 174.171 552.131 187.92C552.131 187.92 475.83 179.015 438.831 152.09L357.783 154.574C357.783 154.574 394.288 187.899 452.493 209.047C452.493 209.047 406.277 200.562 346.683 154.7L282.027 159.332C282.027 159.332 302.149 199.126 362.866 240.226C362.866 240.226 308.766 219.189 272.528 160.769L199.973 168.586C199.973 168.586 204.446 215.929 263.329 272.842C263.329 272.842 207.663 248.79 187.181 170.371L111.275 180.654C111.275 180.654 113.141 233.041 156.538 269.951C156.538 269.951 108.338 243.544 101.386 181.665C101.386 181.665 -100.131 215.46 -109.555 220.807C-109.555 220.807 -113.976 226.114 -128.949 214.992L-128.97 215.002Z" fill="url(#paint17_linear_356_200)"/>
<path d="M-45.3549 171.603C-45.3549 171.603 25.4889 105.088 80.8744 76.3244C136.26 47.5611 197.663 22.7008 264.044 8.12761C330.425 -6.44563 403.095 -12.3588 469.315 7.95666C535.535 28.2721 564.225 53.0985 584.658 72.3226C584.658 72.3226 538.498 93.5182 504.323 114.172C470.148 134.825 324.006 214.201 218.943 229.296C113.88 244.391 18.1011 251.794 -44.1684 183.598C-44.1684 183.598 -49.6465 181.19 -45.3549 171.603Z" fill="url(#paint18_linear_356_200)"/>
<path d="M-147.77 208.359C-147.77 208.359 -124.418 196.563 -47.8923 171.382C28.6331 146.201 48.2696 143.033 48.2696 143.033C48.2696 143.033 98.0405 77.835 148.47 50.9736C148.47 50.9736 77.8809 108.097 58.2117 139.797L119.127 121.708C119.127 121.708 181.619 54.7906 241.959 20.0617C241.959 20.0617 159.758 82.291 127.501 119.958L188.319 104.484C188.319 104.484 264.34 37.4279 325.198 11.5446C325.198 11.5446 240.887 63.2601 198.773 102.112L255.918 89.1114C255.918 89.1114 317.549 45.8819 387.397 20.7777C387.397 20.7777 281.742 72.8272 267.539 87.7147L333.946 74.7257C333.946 74.7257 397.561 40.7191 435.553 35.7807C435.553 35.7807 362.159 60.9392 341.064 74.6141C341.064 74.6141 458.188 55.7107 492.538 57.1518L340.078 78.9959C340.078 78.9959 371.666 95.8088 431.132 99.057C431.132 99.057 364.985 101.039 330.456 82.5653L261.49 94.9366C261.49 94.9366 296.291 118.974 348.307 129.803C348.307 129.803 307.906 128.345 252.021 96.4466L197.29 108.595C197.29 108.595 218.797 140.262 275.125 167.926C275.125 167.926 226.626 156.674 189.332 111.03L128.198 126.913C128.198 126.913 137.156 167.047 193.632 208.535C193.632 208.535 143.47 194.889 117.464 130.063L53.736 148.49C53.736 148.49 61.0136 193.289 102.091 219.538C102.091 219.538 58.0499 202.925 45.398 150.608C45.398 150.608 -123.085 205.111 -130.555 210.898C-130.555 210.898 -133.756 216.018 -147.754 208.348L-147.77 208.359Z" fill="url(#paint19_linear_356_200)"/>
<path d="M-36.5579 722.568C-36.7985 713.431 -29.3724 705.518 -20.2623 705.205L1269.11 660.85C1275.29 660.637 1280.84 664.043 1283.35 669.587L1303.64 714.561C1308.23 724.728 1300.82 736.917 1289.48 737.858L-17.3185 846.34C-26.1248 847.071 -33.4522 840.502 -33.6848 831.669L-36.5579 722.568Z" fill="url(#paint20_linear_356_200)"/>
<path d="M-42.5451 751.008C-42.7905 741.691 -35.0763 733.69 -25.7965 733.636L1112.07 727.029C1115.24 727.01 1118.23 728.195 1120.45 730.346C1128.17 737.821 1122.79 751.474 1111.77 752.389L-24.0458 846.677C-32.8521 847.408 -40.1795 840.839 -40.4121 832.006L-42.5451 751.008Z" fill="url(#paint21_linear_356_200)"/>
<path d="M817 702.304L908 700.548" stroke="#918360" stroke-width="8" stroke-linecap="round" stroke-linejoin="round"/>
<path d="M1189 684.599L1284.99 682.774" stroke="#918360" stroke-width="8" stroke-linecap="round" stroke-linejoin="round"/>
<path d="M27.1617 750.129L122.838 736.151" stroke="#827555" stroke-width="8" stroke-linecap="round" stroke-linejoin="round"/>
<path d="M-13.5587 839.742C-13.5587 839.742 57.2851 773.227 112.671 744.464C168.056 715.7 229.459 690.84 295.84 676.267C362.222 661.694 434.891 655.78 501.111 676.096C567.331 696.411 596.021 721.238 616.454 740.462C616.454 740.462 570.294 761.657 536.12 782.311C501.945 802.964 355.803 882.34 250.74 897.435C145.677 912.53 49.8973 919.933 -12.3723 851.737C-12.3723 851.737 -17.8503 849.329 -13.5587 839.742Z" fill="url(#paint22_linear_356_200)"/>
<path d="M-115.974 876.498C-115.974 876.498 -92.6215 864.702 -16.0962 839.521C60.4292 814.34 80.0658 811.172 80.0658 811.172C80.0658 811.172 129.837 745.974 180.266 719.113C180.266 719.113 109.677 776.236 90.0079 807.936L150.923 789.847C150.923 789.847 213.415 722.93 273.755 688.201C273.755 688.201 191.555 750.43 159.298 788.097L220.115 772.623C220.115 772.623 296.136 705.567 356.994 679.684C356.994 679.684 272.683 731.399 230.569 770.251L287.714 757.251C287.714 757.251 349.345 714.021 419.193 688.917C419.193 688.917 313.538 740.966 299.335 755.854L365.742 742.865C365.742 742.865 429.357 708.858 467.349 703.92C467.349 703.92 393.955 729.078 372.86 742.753C372.86 742.753 489.984 723.85 524.334 725.291L371.874 747.135C371.874 747.135 403.462 763.948 462.928 767.196C462.928 767.196 396.781 769.178 362.253 750.704L293.286 763.076C293.286 763.076 328.087 787.113 380.103 797.942C380.103 797.942 339.702 796.484 283.817 764.586L229.086 776.734C229.086 776.734 250.593 808.401 306.921 836.065C306.921 836.065 258.423 824.813 221.128 779.169L159.994 795.053C159.994 795.053 168.952 835.186 225.428 876.674C225.428 876.674 175.266 863.028 149.26 798.202L85.5321 816.629C85.5321 816.629 92.8097 861.428 133.887 887.677C133.887 887.677 89.846 871.064 77.1942 818.747C77.1942 818.747 -91.2885 873.25 -98.7587 879.037C-98.7587 879.037 -101.96 884.157 -115.958 876.487L-115.974 876.498Z" fill="url(#paint23_linear_356_200)"/>
<path d="M770.773 847.128C770.773 847.128 817.05 788.222 855.925 759.879C894.799 731.536 938.711 705.47 987.611 686.666C1036.51 667.862 1091.21 654.929 1144.03 662.733C1196.85 670.537 1221.59 686.13 1239.39 698.412C1239.39 698.412 1206.67 719.917 1183.02 739.62C1159.37 759.323 1057.2 836.762 978.885 860.448C900.567 884.135 828.432 900.883 773.068 856.131C773.068 856.131 768.614 854.932 770.773 847.128Z" fill="url(#paint24_linear_356_200)"/>
<path d="M696.984 887.016C696.984 887.016 713.414 875.318 768.814 847.254C824.214 819.19 838.812 814.499 838.812 814.499C838.812 814.499 869.182 759.04 904.5 732.721C904.5 732.721 857.328 784.44 846.013 810.88L890.34 790.03C890.34 790.03 930.205 731.786 972.163 698.322C972.163 698.322 916.734 755.279 896.519 787.725L941.073 768.881C941.073 768.881 991.234 708.962 1034.61 682.179C1034.61 682.179 976.356 731.368 948.765 765.861L990.808 749.326C990.808 749.326 1032.76 709.235 1083.09 682.003C1083.09 682.003 1008.6 733.922 999.502 746.914L1048.61 729.315C1048.61 729.315 1093.14 696.022 1121.52 687.853C1121.52 687.853 1068.51 715.537 1054.02 728.405C1054.02 728.405 1141.09 700.417 1167.43 697.532L1053.77 731.858C1053.77 731.858 1079.8 741.009 1125.49 736.589C1125.49 736.589 1075.31 745.769 1046.86 735.694L995.73 753.12C995.73 753.12 1025.04 767.403 1065.94 769.624C1065.94 769.624 1034.98 773.198 988.689 755.368L948.387 770.973C948.387 770.973 968.45 792.613 1014.58 807.164C1014.58 807.164 976.32 804.213 942.604 773.752L897.856 792.945C897.856 792.945 909.336 822.492 957.188 847.562C957.188 847.562 917.377 842.979 890.041 796.59L843.61 818.024C843.61 818.024 854.351 851.321 888.7 866.562C888.7 866.562 853.21 859.008 837.502 820.604C837.502 820.604 715.421 881.678 710.399 886.955C710.399 886.955 708.553 891.228 696.996 887.006L696.984 887.016Z" fill="url(#paint25_linear_356_200)"/>
<defs>
<linearGradient id="paint0_linear_356_200" x1="1117.66" y1="674.945" x2="1253.6" y2="635.184" gradientUnits="userSpaceOnUse">
<stop stop-color="#73BA75"/>
<stop offset="0.5" stop-color="#AACC72"/>
<stop offset="1" stop-color="#CBDCA4"/>
</linearGradient>
<linearGradient id="paint1_linear_356_200" x1="1097.19" y1="680.171" x2="1233.14" y2="640.408" gradientUnits="userSpaceOnUse">
<stop stop-color="#69AD74"/>
<stop offset="1" stop-color="#A4C474" stop-opacity="0.8"/>
</linearGradient>
<linearGradient id="paint2_linear_356_200" x1="787.957" y1="621.163" x2="879.358" y2="594.43" gradientUnits="userSpaceOnUse">
<stop stop-color="#73BA75"/>
<stop offset="0.5" stop-color="#AACC72"/>
<stop offset="1" stop-color="#CBDCA4"/>
</linearGradient>
<linearGradient id="paint3_linear_356_200" x1="774.193" y1="624.677" x2="865.6" y2="597.943" gradientUnits="userSpaceOnUse">
<stop stop-color="#69AD74"/>
<stop offset="1" stop-color="#A4C474" stop-opacity="0.8"/>
</linearGradient>
<linearGradient id="paint4_linear_356_200" x1="280.024" y1="651.963" x2="267.161" y2="746.321" gradientUnits="userSpaceOnUse">
<stop stop-color="#73BA75"/>
<stop offset="0.5" stop-color="#AACC72"/>
<stop offset="1" stop-color="#CBDCA4"/>
</linearGradient>
<linearGradient id="paint5_linear_356_200" x1="281.914" y1="637.83" x2="269.05" y2="732.194" gradientUnits="userSpaceOnUse">
<stop stop-color="#69AD74"/>
<stop offset="1" stop-color="#A4C474" stop-opacity="0.8"/>
</linearGradient>
<linearGradient id="paint6_linear_356_200" x1="-167.741" y1="546.452" x2="1284.98" y2="1009.6" gradientUnits="userSpaceOnUse">
<stop stop-color="#8B7C54"/>
<stop offset="1" stop-color="#ACA082"/>
</linearGradient>
<linearGradient id="paint7_linear_356_200" x1="-175" y1="544.752" x2="1098.84" y2="950.866" gradientUnits="userSpaceOnUse">
<stop stop-color="#756846"/>
<stop offset="1" stop-color="#9B9074"/>
</linearGradient>
<linearGradient id="paint8_linear_356_200" x1="859.331" y1="106.099" x2="1380.56" y2="251.308" gradientUnits="userSpaceOnUse">
<stop stop-color="#64A066"/>
<stop offset="0.5" stop-color="#AACC72"/>
<stop offset="1" stop-color="#CBDCA4"/>
</linearGradient>
<linearGradient id="paint9_linear_356_200" x1="777.048" y1="75.7841" x2="1308.91" y2="223.955" gradientUnits="userSpaceOnUse">
<stop stop-color="#69AD74"/>
<stop offset="1" stop-color="#A4C474" stop-opacity="0.8"/>
</linearGradient>
<linearGradient id="paint10_linear_356_200" x1="766.887" y1="134.555" x2="1073.76" y2="90.8669" gradientUnits="userSpaceOnUse">
<stop stop-color="#73BA75"/>
<stop offset="0.5" stop-color="#AACC72"/>
<stop offset="1" stop-color="#CBDCA4"/>
</linearGradient>
<linearGradient id="paint11_linear_356_200" x1="717.002" y1="139.388" x2="1030.13" y2="94.8088" gradientUnits="userSpaceOnUse">
<stop stop-color="#69AD74"/>
<stop offset="1" stop-color="#A4C474" stop-opacity="0.8"/>
</linearGradient>
<linearGradient id="paint12_linear_356_200" x1="372.739" y1="144.732" x2="887.242" y2="95.1214" gradientUnits="userSpaceOnUse">
<stop stop-color="#73BA75"/>
<stop offset="0.5" stop-color="#AACC72"/>
<stop offset="1" stop-color="#E7F9BF"/>
</linearGradient>
<linearGradient id="paint13_linear_356_200" x1="289.188" y1="148.151" x2="814.187" y2="97.5282" gradientUnits="userSpaceOnUse">
<stop stop-color="#69AD74"/>
<stop offset="1" stop-color="#A4C474" stop-opacity="0.8"/>
</linearGradient>
<linearGradient id="paint14_linear_356_200" x1="502.408" y1="133.801" x2="1077.66" y2="276.471" gradientUnits="userSpaceOnUse">
<stop stop-color="#77C179"/>
<stop offset="0.5" stop-color="#AAC57E"/>
<stop offset="1" stop-color="#B8C796"/>
</linearGradient>
<linearGradient id="paint15_linear_356_200" x1="411.334" y1="103.309" x2="998.324" y2="248.89" gradientUnits="userSpaceOnUse">
<stop stop-color="#69AD74"/>
<stop offset="1" stop-color="#A4C474" stop-opacity="0.8"/>
</linearGradient>
<linearGradient id="paint16_linear_356_200" x1="-8.01788" y1="167.738" x2="732.312" y2="187.777" gradientUnits="userSpaceOnUse">
<stop stop-color="#5B945D"/>
<stop offset="0.5" stop-color="#A4C56F"/>
<stop offset="1" stop-color="#C9DBA0"/>
</linearGradient>
<linearGradient id="paint17_linear_356_200" x1="-127.417" y1="157.625" x2="628.015" y2="178.073" gradientUnits="userSpaceOnUse">
<stop stop-color="#69AD74"/>
<stop offset="1" stop-color="#A4C474" stop-opacity="0.8"/>
</linearGradient>
<linearGradient id="paint18_linear_356_200" x1="-49.5732" y1="152.453" x2="586.361" y2="89.5479" gradientUnits="userSpaceOnUse">
<stop stop-color="#73BA75"/>
<stop offset="0.5" stop-color="#AACC72"/>
<stop offset="1" stop-color="#CBDCA4"/>
</linearGradient>
<linearGradient id="paint19_linear_356_200" x1="-152.669" y1="158.839" x2="496.239" y2="94.6508" gradientUnits="userSpaceOnUse">
<stop stop-color="#69AD74"/>
<stop offset="1" stop-color="#A4C474" stop-opacity="0.8"/>
</linearGradient>
<linearGradient id="paint20_linear_356_200" x1="-33.2636" y1="847.664" x2="1347.79" y2="811.295" gradientUnits="userSpaceOnUse">
<stop stop-color="#A79565"/>
<stop offset="1" stop-color="#CCBE99"/>
</linearGradient>
<linearGradient id="paint21_linear_356_200" x1="-39.9909" y1="848.001" x2="1171" y2="816.111" gradientUnits="userSpaceOnUse">
<stop stop-color="#8C7D54"/>
<stop offset="1" stop-color="#B0A484"/>
</linearGradient>
<linearGradient id="paint22_linear_356_200" x1="-17.777" y1="820.592" x2="618.158" y2="757.687" gradientUnits="userSpaceOnUse">
<stop stop-color="#73BA75"/>
<stop offset="0.5" stop-color="#AACC72"/>
<stop offset="1" stop-color="#CBDCA4"/>
</linearGradient>
<linearGradient id="paint23_linear_356_200" x1="-120.873" y1="826.978" x2="528.035" y2="762.79" gradientUnits="userSpaceOnUse">
<stop stop-color="#69AD74"/>
<stop offset="1" stop-color="#A4C474" stop-opacity="0.8"/>
</linearGradient>
<linearGradient id="paint24_linear_356_200" x1="765.338" y1="833.023" x2="1242.69" y2="711.342" gradientUnits="userSpaceOnUse">
<stop stop-color="#73BA75"/>
<stop offset="0.5" stop-color="#AACC72"/>
<stop offset="1" stop-color="#CBDCA4"/>
</linearGradient>
<linearGradient id="paint25_linear_356_200" x1="687.509" y1="849.845" x2="1174.6" y2="725.681" gradientUnits="userSpaceOnUse">
<stop stop-color="#69AD74"/>
<stop offset="1" stop-color="#A4C474" stop-opacity="0.8"/>
</linearGradient>
<clipPath id="clip0_356_200">
<rect width="176" height="96" fill="white" transform="matrix(-0.836482 0.547994 0.547994 0.836482 1232.22 581)"/>
</clipPath>
<clipPath id="clip1_356_200">
<rect width="118.332" height="64.545" fill="white" transform="matrix(-0.836482 0.547994 0.547994 0.836482 864.983 558)"/>
</clipPath>
<clipPath id="clip2_356_200">
<rect width="118.332" height="64.545" fill="white" transform="translate(229 737.515) rotate(-65.3107)"/>
</clipPath>
</defs>
</svg>
